<mxfile host="65bd71144e">
    <diagram id="zYuMfx02Wc_rXyaBOMLL" name="Страница 1">
        <mxGraphModel dx="1196" dy="975" grid="1" gridSize="10" guides="1" tooltips="1" connect="1" arrows="1" fold="1" page="1" pageScale="1" pageWidth="827" pageHeight="1169" math="0" shadow="0">
            <root>
                <mxCell id="0"/>
                <mxCell id="1" parent="0"/>
                <mxCell id="19" value="" style="rounded=0;whiteSpace=wrap;html=1;fontSize=15;" vertex="1" parent="1">
                    <mxGeometry x="50" y="210" width="345" height="180" as="geometry"/>
                </mxCell>
                <mxCell id="3" value="Fetcher" style="swimlane;fontStyle=1;align=center;verticalAlign=top;childLayout=stackLayout;horizontal=1;startSize=26;horizontalStack=0;resizeParent=1;resizeParentMax=0;resizeLast=0;collapsible=1;marginBottom=0;fontSize=15;" vertex="1" parent="1">
                    <mxGeometry x="430" y="265" width="270" height="80" as="geometry"/>
                </mxCell>
                <mxCell id="5" value="" style="line;strokeWidth=1;fillColor=none;align=left;verticalAlign=middle;spacingTop=-1;spacingLeft=3;spacingRight=3;rotatable=0;labelPosition=right;points=[];portConstraint=eastwest;fontSize=15;" vertex="1" parent="3">
                    <mxGeometry y="26" width="270" height="8" as="geometry"/>
                </mxCell>
                <mxCell id="6" value="+ get(url: string): string&#10;+ post(url: string, data: string): boolean" style="text;strokeColor=none;fillColor=none;align=left;verticalAlign=top;spacingLeft=4;spacingRight=4;overflow=hidden;rotatable=0;points=[[0,0.5],[1,0.5]];portConstraint=eastwest;fontSize=15;" vertex="1" parent="3">
                    <mxGeometry y="34" width="270" height="46" as="geometry"/>
                </mxCell>
                <mxCell id="7" value="CacheableHTTPClient" style="swimlane;fontStyle=1;align=center;verticalAlign=top;childLayout=stackLayout;horizontal=1;startSize=26;horizontalStack=0;resizeParent=1;resizeParentMax=0;resizeLast=0;collapsible=1;marginBottom=0;fontSize=15;" vertex="1" parent="1">
                    <mxGeometry x="70" y="250" width="280" height="110" as="geometry"/>
                </mxCell>
                <mxCell id="8" value="- httpClient: HTTPClient" style="text;strokeColor=none;fillColor=none;align=left;verticalAlign=top;spacingLeft=4;spacingRight=4;overflow=hidden;rotatable=0;points=[[0,0.5],[1,0.5]];portConstraint=eastwest;fontSize=15;" vertex="1" parent="7">
                    <mxGeometry y="26" width="280" height="26" as="geometry"/>
                </mxCell>
                <mxCell id="9" value="" style="line;strokeWidth=1;fillColor=none;align=left;verticalAlign=middle;spacingTop=-1;spacingLeft=3;spacingRight=3;rotatable=0;labelPosition=right;points=[];portConstraint=eastwest;fontSize=15;" vertex="1" parent="7">
                    <mxGeometry y="52" width="280" height="8" as="geometry"/>
                </mxCell>
                <mxCell id="10" value="+ get(url: string): string&#10;+ post(url: string, data: string): boolean" style="text;strokeColor=none;fillColor=none;align=left;verticalAlign=top;spacingLeft=4;spacingRight=4;overflow=hidden;rotatable=0;points=[[0,0.5],[1,0.5]];portConstraint=eastwest;fontSize=15;" vertex="1" parent="7">
                    <mxGeometry y="60" width="280" height="50" as="geometry"/>
                </mxCell>
                <mxCell id="11" value="" style="endArrow=diamondThin;endFill=1;endSize=24;html=1;fontSize=15;edgeStyle=orthogonalEdgeStyle;entryX=1;entryY=0.5;entryDx=0;entryDy=0;exitX=0;exitY=0.5;exitDx=0;exitDy=0;" edge="1" parent="1" source="6" target="8">
                    <mxGeometry width="160" relative="1" as="geometry">
                        <mxPoint x="450" y="357" as="sourcePoint"/>
                        <mxPoint x="710" y="480" as="targetPoint"/>
                        <Array as="points">
                            <mxPoint x="390" y="322"/>
                            <mxPoint x="390" y="289"/>
                        </Array>
                    </mxGeometry>
                </mxCell>
                <mxCell id="12" value="&lt;&lt;Interface&gt;&gt;&#10;HTTPClient" style="swimlane;fontStyle=1;align=center;verticalAlign=top;childLayout=stackLayout;horizontal=1;startSize=50;horizontalStack=0;resizeParent=1;resizeParentMax=0;resizeLast=0;collapsible=1;marginBottom=0;fontSize=15;" vertex="1" parent="1">
                    <mxGeometry x="279" y="10" width="270" height="104" as="geometry"/>
                </mxCell>
                <mxCell id="14" value="" style="line;strokeWidth=1;fillColor=none;align=left;verticalAlign=middle;spacingTop=-1;spacingLeft=3;spacingRight=3;rotatable=0;labelPosition=right;points=[];portConstraint=eastwest;fontSize=15;" vertex="1" parent="12">
                    <mxGeometry y="50" width="270" height="8" as="geometry"/>
                </mxCell>
                <mxCell id="15" value="+ get(url: string): string&#10;+ post(url: string, data: string): boolean" style="text;strokeColor=none;fillColor=none;align=left;verticalAlign=top;spacingLeft=4;spacingRight=4;overflow=hidden;rotatable=0;points=[[0,0.5],[1,0.5]];portConstraint=eastwest;fontSize=15;" vertex="1" parent="12">
                    <mxGeometry y="58" width="270" height="46" as="geometry"/>
                </mxCell>
                <mxCell id="16" value="" style="endArrow=block;dashed=1;endFill=0;endSize=12;html=1;fontSize=15;exitX=0.5;exitY=0;exitDx=0;exitDy=0;edgeStyle=orthogonalEdgeStyle;" edge="1" parent="1" source="3" target="15">
                    <mxGeometry width="160" relative="1" as="geometry">
                        <mxPoint x="550" y="360" as="sourcePoint"/>
                        <mxPoint x="710" y="360" as="targetPoint"/>
                        <Array as="points">
                            <mxPoint x="565" y="190"/>
                            <mxPoint x="410" y="190"/>
                        </Array>
                    </mxGeometry>
                </mxCell>
                <mxCell id="17" value="" style="endArrow=block;dashed=1;endFill=0;endSize=12;html=1;fontSize=15;exitX=0.475;exitY=-0.009;exitDx=0;exitDy=0;exitPerimeter=0;entryX=0.613;entryY=1.038;entryDx=0;entryDy=0;entryPerimeter=0;edgeStyle=orthogonalEdgeStyle;" edge="1" parent="1" source="7" target="15">
                    <mxGeometry width="160" relative="1" as="geometry">
                        <mxPoint x="575" y="275" as="sourcePoint"/>
                        <mxPoint x="416.48876404494376" y="110" as="targetPoint"/>
                        <Array as="points">
                            <mxPoint x="203" y="190"/>
                            <mxPoint x="410" y="190"/>
                        </Array>
                    </mxGeometry>
                </mxCell>
                <mxCell id="20" value="Proxy" style="text;html=1;strokeColor=none;fillColor=none;align=center;verticalAlign=middle;whiteSpace=wrap;rounded=0;fontSize=15;" vertex="1" parent="1">
                    <mxGeometry x="50" y="210" width="60" height="30" as="geometry"/>
                </mxCell>
            </root>
        </mxGraphModel>
    </diagram>
</mxfile>
